<svg width="512" height="512" viewBox="0 0 512 512" fill="none" xmlns="http://www.w3.org/2000/svg">
<path d="M416 112H268.96C268.017 111.996 267.094 111.722 266.301 111.212C265.507 110.702 264.876 109.976 264.48 109.12L256 92.16C249.35 78.8885 239.138 67.7291 226.507 59.9302C213.876 52.1313 199.325 48.0005 184.48 48H96C74.7827 48 54.4344 56.4285 39.4315 71.4315C24.4285 86.4344 16 106.783 16 128V384C16 405.217 24.4285 425.566 39.4315 440.569C54.4344 455.571 74.7827 464 96 464H416C437.217 464 457.566 455.571 472.569 440.569C487.571 425.566 496 405.217 496 384V192C496 170.783 487.571 150.434 472.569 135.431C457.566 120.429 437.217 112 416 112V112ZM402.08 336C402.08 340.243 400.394 344.313 397.394 347.314C394.393 350.314 390.323 352 386.08 352H322.08C317.837 352 313.767 350.314 310.766 347.314C307.766 344.313 306.08 340.243 306.08 336C306.08 331.757 307.766 327.687 310.766 324.686C313.767 321.686 317.837 320 322.08 320H386.08C390.323 320 394.393 321.686 397.394 324.686C400.394 327.687 402.08 331.757 402.08 336Z" fill="black"/>
</svg>
