<svg width="512" height="512" viewBox="0 0 512 512" fill="none" xmlns="http://www.w3.org/2000/svg">
<path d="M256 0C114.511 0 0 114.496 0 256C0 397.489 114.496 512 256 512C397.489 512 512 397.504 512 256C512 114.511 397.504 0 256 0ZM273.86 367.926C273.86 377.79 265.863 385.786 256 385.786C246.137 385.786 238.14 377.789 238.14 367.926V221.47C238.14 211.606 246.137 203.61 256 203.61C265.863 203.61 273.86 211.607 273.86 221.47V367.926ZM273.86 165.507C273.86 175.371 265.863 183.367 256 183.367C246.137 183.367 238.14 175.37 238.14 165.507V144.074C238.14 134.21 246.137 126.214 256 126.214C265.863 126.214 273.86 134.211 273.86 144.074V165.507Z" fill="black"/>
</svg>
