<svg width="512" height="512" viewBox="0 0 512 512" fill="none" xmlns="http://www.w3.org/2000/svg">
<g clip-path="url(#clip0_242_15)">
<path d="M442.15 450.56H69.8459C54.3637 450.56 41.9066 463.468 41.9066 478.937C41.9066 494.419 54.3683 512 69.8459 512H442.15C457.632 512 470.089 494.414 470.089 478.937C470.093 463.468 457.508 450.56 442.15 450.56Z" fill="black"/>
<path d="M75.7018 239.278H224.021V387.659C224.021 402.654 241.009 414.72 256 414.72C270.992 414.72 287.994 402.645 287.994 387.659V239.278H436.299C451.295 239.278 463.36 222.351 463.36 207.36C463.36 192.369 451.286 175.305 436.299 175.305H287.994V27.0614C287.994 12.0657 270.992 0 256 0C241.009 0 224.021 12.0701 224.021 27.0614V175.305H75.7018C60.7061 175.305 48.6404 192.369 48.6404 207.36C48.6404 222.351 60.8302 239.278 75.7018 239.278Z" fill="black"/>
</g>
<defs>
<clipPath id="clip0_242_15">
<rect width="512" height="512" fill="white"/>
</clipPath>
</defs>
</svg>
