<svg width="512" height="512" viewBox="0 0 512 512" fill="none" xmlns="http://www.w3.org/2000/svg">
<path d="M426.752 106.667H192.085C174.229 106.667 152.576 116.309 140.629 129.579L53.9733 225.877C38.784 242.773 38.784 269.227 53.9733 286.123L140.629 382.421C152.576 395.691 174.229 405.333 192.085 405.333H426.752C450.283 405.333 469.419 386.197 469.419 362.667V149.333C469.419 125.803 450.261 106.667 426.752 106.667V106.667ZM356.501 283.584C364.843 291.925 364.843 305.408 356.501 313.749C352.341 317.909 346.88 320 341.419 320C335.957 320 330.496 317.909 326.336 313.749L298.752 286.165L271.189 313.749C267.008 317.909 261.547 320 256.085 320C250.624 320 245.163 317.909 241.003 313.749C232.661 305.408 232.661 291.925 241.003 283.584L268.587 256L241.003 228.416C232.661 220.075 232.661 206.592 241.003 198.251C249.344 189.909 262.827 189.909 271.168 198.251L298.731 225.835L326.315 198.251C334.656 189.909 348.139 189.909 356.48 198.251C364.821 206.592 364.821 220.075 356.48 228.416L328.917 256L356.501 283.584Z" fill="black"/>
</svg>
