<svg width="512" height="512" viewBox="0 0 512 512" fill="none" xmlns="http://www.w3.org/2000/svg">
<g clip-path="url(#clip0_242_28)">
<path d="M376.008 78.6197L266.104 188.524C262.533 192.095 256.744 192.095 253.174 188.524L143.269 78.6197C125.418 60.7684 96.4706 60.7684 78.6193 78.6197C60.768 96.471 60.768 125.418 78.6193 143.269L188.524 253.174C192.094 256.744 192.094 262.534 188.524 266.104L78.6193 376.009C60.768 393.86 60.768 422.807 78.6193 440.658C96.4706 458.51 125.418 458.51 143.269 440.658L253.174 330.754C256.744 327.184 262.533 327.184 266.104 330.754L376.008 440.658C393.86 458.51 422.807 458.51 440.658 440.658C458.509 422.807 458.509 393.86 440.658 376.009L330.753 266.104C327.183 262.534 327.183 256.744 330.753 253.174L440.658 143.269C458.509 125.418 458.509 96.471 440.658 78.6197C422.807 60.7684 393.86 60.7684 376.008 78.6197Z" fill="black"/>
</g>
<defs>
<clipPath id="clip0_242_28">
<rect width="512" height="512" fill="white"/>
</clipPath>
</defs>
</svg>
