<svg width="512" height="512" viewBox="0 0 512 512" fill="none" xmlns="http://www.w3.org/2000/svg">
<path d="M30.7229 301.231H481.281C498.246 301.231 512 287.482 512 270.508C512 253.539 498.251 239.785 481.281 239.785H30.7229C13.7537 239.789 0 253.543 0 270.508C0 287.477 13.7537 301.231 30.7229 301.231Z" fill="black"/>
<path d="M255.157 162.993C297.036 162.993 331.101 128.928 331.101 87.0448C331.101 45.1659 297.036 11.0971 255.157 11.0971C213.283 11.0971 179.205 45.1659 179.205 87.0448C179.201 128.924 213.274 162.993 255.157 162.993Z" fill="black"/>
<path d="M331.097 424.959C331.097 383.081 297.032 349.016 255.149 349.016C213.278 349.016 179.201 383.081 179.201 424.959C179.201 466.83 213.266 500.903 255.149 500.903C297.028 500.903 331.097 466.847 331.097 424.959Z" fill="black"/>
</svg>
