<svg width="512" height="512" viewBox="0 0 512 512" fill="none" xmlns="http://www.w3.org/2000/svg">
<g clip-path="url(#clip0_376_29)">
<path d="M112 298.667H206.229L186.773 482.581C186.688 483.136 186.667 484.778 186.667 485.333C186.667 500.032 198.635 512 213.333 512C221.696 512 229.675 507.989 234.965 500.885L421.333 234.667C424.768 230.08 426.666 224.405 426.666 218.667C426.666 203.968 414.698 192 400 192H284.672L303.872 29.8027C303.936 29.184 303.978 27.2853 303.978 26.6667C304 11.968 292.032 0 277.333 0C268.97 0 260.992 4.01067 255.53 11.328L90.6666 256C87.232 260.587 85.3333 266.261 85.3333 272C85.3333 286.699 97.3013 298.667 112 298.667V298.667Z" fill="black"/>
</g>
<defs>
<clipPath id="clip0_376_29">
<rect width="512" height="512" fill="white"/>
</clipPath>
</defs>
</svg>
