<svg width="512" height="512" viewBox="0 0 512 512" fill="none" xmlns="http://www.w3.org/2000/svg">
<path d="M440.418 288.576L432.002 283.712C421.986 277.936 416.002 267.568 416.002 256C416.002 244.432 421.986 234.064 432.002 228.288L440.418 223.424C463.394 210.144 471.25 180.832 457.986 157.856L441.986 130.144C428.754 107.216 399.33 99.344 376.417 112.576L368.001 117.424C357.985 123.216 346.001 123.216 336.001 117.424C325.985 111.632 320.001 101.28 320.001 89.712V80C320.001 53.536 298.465 32 272.001 32H240.001C213.537 32 192.001 53.536 192.001 80V89.728C192.001 101.296 186.017 111.648 176.001 117.44C165.985 123.216 154.016 123.232 144 117.44L135.584 112.576C112.672 99.344 83.2481 107.216 70.0001 130.144L54 157.856C40.7359 180.832 48.592 210.16 71.5681 223.424L80.0001 228.288C90.0162 234.064 96.0002 244.432 96.0002 256C96.0002 267.568 90.0162 277.936 80.0001 283.712L71.5841 288.576C48.608 301.84 40.7519 331.168 54.016 354.144L70.0161 381.856C83.2641 404.784 112.688 412.656 135.584 399.424L144 394.576C154.016 388.768 165.985 388.8 176.001 394.576C186.017 400.368 192.001 410.72 192.001 422.288V432C192.001 458.464 213.537 480 240.001 480H272.001C298.465 480 320.001 458.464 320.001 432V422.272C320.001 410.704 325.985 400.352 336.001 394.56C346.001 388.784 357.985 388.768 368.001 394.56L376.417 399.424C399.33 412.64 428.754 404.768 441.986 381.856L457.986 354.144C471.25 331.168 463.394 301.84 440.418 288.576V288.576ZM256.001 336C211.889 336 176.001 300.112 176.001 256C176.001 211.888 211.889 176 256.001 176C300.113 176 336.001 211.888 336.001 256C336.001 300.112 300.113 336 256.001 336Z" fill="black"/>
</svg>
