<svg width="512" height="512" viewBox="0 0 512 512" fill="none" xmlns="http://www.w3.org/2000/svg">
<g clip-path="url(#clip0_242_20)">
<path d="M105.751 245.339C130.196 245.32 153.877 236.826 172.762 221.304C191.646 205.783 204.565 184.194 209.317 160.216C214.07 136.237 210.362 111.353 198.825 89.8023C187.289 68.2514 168.637 51.3669 146.048 42.0253C123.458 32.6837 98.3292 31.4629 74.9409 38.5709C51.5525 45.6789 31.352 60.676 17.7807 81.0072C4.20945 101.338 -1.89309 125.746 0.512763 150.072C2.91862 174.398 13.684 197.137 30.975 214.416C40.7887 224.24 52.4463 232.03 65.2785 237.336C78.1107 242.643 91.8648 245.363 105.751 245.339V245.339ZM76.229 110.117C83.059 103.287 92.0458 99.0374 101.658 98.0909C111.27 97.1445 120.913 99.5603 128.944 104.927C136.975 110.293 142.897 118.278 145.701 127.521C148.504 136.764 148.016 146.693 144.32 155.616C140.623 164.54 133.947 171.906 125.429 176.459C116.91 181.012 107.077 182.47 97.6038 180.586C88.1306 178.701 79.6039 173.591 73.4764 166.124C67.349 158.658 64 149.298 64 139.639C63.9848 134.154 65.0579 128.72 67.157 123.653C69.2562 118.585 72.3396 113.985 76.229 110.117V110.117ZM406.25 266.611C381.783 266.611 358.074 275.094 339.161 290.615C320.248 306.136 307.302 327.734 302.528 351.731C297.755 375.727 301.449 400.636 312.982 422.213C324.516 443.791 343.174 460.702 365.778 470.065C388.381 479.428 413.533 480.664 436.945 473.562C460.358 466.46 480.584 451.459 494.177 431.116C507.77 410.773 513.889 386.346 511.491 361.998C509.093 337.649 498.326 314.885 481.026 297.585C471.229 287.734 459.576 279.924 446.741 274.608C433.905 269.291 420.143 266.573 406.25 266.611V266.611ZM435.771 401.883C427.931 409.664 417.327 414.022 406.282 414.001C395.236 413.98 384.649 409.583 376.838 401.773C369.028 393.962 364.631 383.375 364.61 372.329C364.59 361.284 368.947 350.68 376.728 342.84C380.599 338.939 385.203 335.842 390.275 333.724C395.346 331.607 400.786 330.512 406.282 330.501C411.778 330.491 417.222 331.566 422.301 333.665C427.381 335.763 431.996 338.844 435.882 342.73C439.768 346.616 442.849 351.232 444.947 356.311C447.045 361.391 448.12 366.835 448.11 372.33C448.099 377.826 447.004 383.266 444.886 388.338C442.769 393.409 439.671 398.013 435.77 401.884L435.771 401.883ZM468.739 43.261C471.71 46.2325 474.067 49.7601 475.676 53.6426C477.284 57.525 478.111 61.6862 478.111 65.8885C478.111 70.0908 477.284 74.252 475.676 78.1344C474.067 82.0169 471.71 85.5445 468.739 88.516L88.517 468.739C82.5078 474.702 74.3807 478.041 65.9151 478.025C57.4495 478.008 49.3353 474.638 43.3493 468.652C37.3632 462.666 33.9932 454.552 33.977 446.086C33.9608 437.62 37.2999 429.493 43.263 423.484L423.485 43.261C429.486 37.2601 437.625 33.8888 446.112 33.8888C454.599 33.8888 462.738 37.2601 468.739 43.261Z" fill="black"/>
</g>
<defs>
<clipPath id="clip0_242_20">
<rect width="512" height="512" fill="white"/>
</clipPath>
</defs>
</svg>
